<svg version="1.2" xmlns="http://www.w3.org/2000/svg" viewBox="0 0 50 50" width="50" height="50">
	<title>gold-svgrepo-com-svg</title>
	<style>
		.s0 { fill: #ffc200 } 
		.s1 { fill: #ffb000 } 
		.s2 { fill: #ff9700 } 
		.s3 { fill: #ffda00 } 
	</style>
	<path id="Layer" class="s0" d="m15.6 40.4l-1.5-4.6c-0.1-0.3-0.4-0.6-0.7-0.6h-11.1c-0.3 0-0.7 0.3-0.7 0.6l-1.6 4.7c0 0.3 0 0.5 0.1 0.7 0.2 0.1 0.4 0.3 0.7 0.3h14c0.4 0 0.8-0.3 0.8-0.7 0-0.2 0-0.3 0-0.4z"/>
	<path id="Layer" class="s1" d="m0 40.5c0 0.3 0 0.5 0.1 0.7 0.2 0.1 0.4 0.3 0.7 0.3h14c0.4 0 0.8-0.3 0.8-0.7 0-0.2 0-0.3-0.1-0.4l-1.5-4.6"/>
	<path id="Layer" class="s2" d="m0 40.5c0 0.3 0 0.5 0.1 0.7 0.2 0.1 0.4 0.3 0.7 0.3h14c0.4 0 0.8-0.3 0.8-0.7 0-0.2 0-0.3-0.1-0.4"/>
	<path id="Layer" class="s3" d="m14.1 35.9c-0.1-0.4-0.4-0.6-0.7-0.6h-11.1c-0.3 0-0.7 0.2-0.7 0.6"/>
	<g id="Layer">
		<path id="Layer" class="s0" d="m32.7 40.4l-1.4-4.6c-0.1-0.3-0.4-0.6-0.8-0.6h-11.1c-0.3 0-0.6 0.3-0.7 0.6l-1.5 4.6c-0.1 0.3 0 0.5 0.1 0.7 0.1 0.1 0.4 0.3 0.6 0.3h14.1c0.4 0 0.7-0.3 0.7-0.7 0.1-0.1 0.1-0.2 0-0.3z"/>
	</g>
	<path id="Layer" class="s1" d="m17.2 40.5c-0.1 0.3 0 0.5 0.1 0.7 0.1 0.1 0.4 0.3 0.6 0.3h14.1c0.4 0 0.7-0.3 0.7-0.7 0-0.2 0-0.3-0.1-0.4l-1.4-4.6"/>
	<path id="Layer" class="s2" d="m17.2 40.5c-0.1 0.3 0 0.5 0.1 0.7 0.1 0.1 0.4 0.3 0.6 0.3h14.1c0.4 0 0.7-0.3 0.7-0.7 0-0.2 0-0.3-0.1-0.4"/>
	<path id="Layer" class="s3" d="m31.3 35.9c-0.1-0.4-0.4-0.6-0.8-0.6h-11.1c-0.3 0-0.6 0.2-0.7 0.6"/>
	<g id="Layer">
		<path id="Layer" class="s0" d="m49.9 40.4l-1.5-4.6c-0.1-0.3-0.4-0.6-0.7-0.6h-11.1c-0.3 0-0.7 0.3-0.8 0.6l-1.5 4.6c-0.1 0.3 0 0.5 0.1 0.7 0.2 0.1 0.4 0.3 0.6 0.3h14.1c0.4 0 0.8-0.3 0.8-0.7 0-0.1 0-0.2 0-0.3z"/>
	</g>
	<path id="Layer" class="s1" d="m34.3 40.5c-0.1 0.3 0 0.5 0.1 0.7 0.2 0.1 0.4 0.3 0.6 0.3h14.1c0.4 0 0.8-0.3 0.8-0.7 0-0.2 0-0.3-0.1-0.4l-1.5-4.6"/>
	<path id="Layer" class="s2" d="m34.3 40.5c-0.1 0.3 0 0.5 0.1 0.7 0.2 0.1 0.4 0.3 0.6 0.3h14.1c0.4 0 0.8-0.3 0.8-0.7 0-0.2 0-0.3-0.1-0.4"/>
	<path id="Layer" class="s3" d="m48.4 35.9c-0.1-0.4-0.4-0.6-0.7-0.6h-11.1c-0.3 0-0.7 0.2-0.8 0.6"/>
	<g id="Layer">
		<path id="Layer" class="s0" d="m24.2 32.1l-1.5-4.6c-0.1-0.3-0.4-0.6-0.7-0.6h-11.2c-0.3 0-0.6 0.3-0.7 0.6l-1.5 4.7c0 0.3 0 0.5 0.1 0.7 0.2 0.1 0.4 0.3 0.7 0.3h14.1c0.4 0 0.7-0.3 0.7-0.7 0.1-0.2 0-0.3 0-0.4z"/>
	</g>
	<path id="Layer" class="s1" d="m8.6 32.2c0 0.3 0 0.5 0.1 0.7 0.2 0.1 0.4 0.3 0.7 0.3h14.1c0.4 0 0.7-0.3 0.7-0.7 0-0.2 0-0.3-0.1-0.4l-1.5-4.6"/>
	<path id="Layer" class="s2" d="m8.6 32.2c0 0.3 0 0.5 0.1 0.7 0.2 0.1 0.4 0.3 0.7 0.3h14.1c0.4 0 0.7-0.3 0.7-0.7 0-0.2 0-0.3-0.1-0.4"/>
	<path id="Layer" class="s3" d="m22.6 27.6c0-0.4-0.4-0.6-0.7-0.6h-11.1c-0.3 0-0.6 0.2-0.7 0.6"/>
	<g id="Layer">
		<path id="Layer" class="s0" d="m41.2 32.1l-1.4-4.6c-0.1-0.3-0.4-0.6-0.7-0.6h-11.1c-0.4 0-0.7 0.3-0.8 0.6l-1.4 4.7c-0.1 0.3 0 0.5 0.1 0.7 0.1 0.1 0.4 0.3 0.6 0.3h14.1c0.4 0 0.7-0.3 0.7-0.7 0.1-0.2 0-0.3-0.1-0.4z"/>
	</g>
	<path id="Layer" class="s1" d="m25.8 32.2c-0.1 0.3 0 0.5 0.1 0.7 0.1 0.1 0.4 0.3 0.6 0.3h14.1c0.4 0 0.7-0.3 0.7-0.7 0-0.2 0-0.3-0.1-0.4l-1.4-4.6"/>
	<path id="Layer" class="s2" d="m25.8 32.2c-0.1 0.3 0 0.5 0.1 0.7 0.1 0.1 0.4 0.3 0.6 0.3h14.1c0.4 0 0.7-0.3 0.7-0.7 0-0.2 0-0.3-0.1-0.4"/>
	<path id="Layer" class="s3" d="m39.8 27.6c-0.1-0.4-0.4-0.6-0.7-0.6h-11.1c-0.4 0-0.7 0.2-0.8 0.6"/>
	<g id="Layer">
		<path id="Layer" class="s0" d="m32.7 24l-1.4-4.6c-0.1-0.3-0.4-0.5-0.8-0.5h-11.1c-0.3 0-0.6 0.2-0.7 0.5l-1.5 4.8c-0.1 0.2 0 0.5 0.1 0.6 0.1 0.2 0.4 0.4 0.6 0.4h14.1c0.4 0 0.7-0.4 0.7-0.8 0.1-0.1 0.1-0.2 0-0.4z"/>
	</g>
	<path id="Layer" class="s1" d="m17.2 24.2c-0.1 0.2 0 0.5 0.1 0.6 0.1 0.2 0.4 0.4 0.6 0.4h14.1c0.4 0 0.7-0.4 0.7-0.8 0-0.1 0-0.2-0.1-0.4l-1.4-4.6"/>
	<path id="Layer" class="s2" d="m17.2 24.2c-0.1 0.2 0 0.5 0.1 0.6 0.1 0.2 0.4 0.4 0.6 0.4h14.1c0.4 0 0.7-0.4 0.7-0.8 0-0.1 0-0.2-0.1-0.4"/>
	<path id="Layer" class="s3" d="m31.3 19.4c-0.1-0.3-0.4-0.5-0.8-0.5h-11.1c-0.3 0-0.6 0.2-0.7 0.5"/>
	<g id="Layer">
		<path id="Layer" class="s3" d="m14.8 14.2c0 3.1-0.1 5.7-0.3 5.7-0.1 0-0.3-2.6-0.3-5.7 0-3.1 0.2-5.7 0.3-5.7 0.3 0 0.3 2.6 0.3 5.7z"/>
		<path id="Layer" class="s3" d="m14.6 14.4c-3.1 0-5.7-0.1-5.7-0.3 0-0.1 2.6-0.3 5.7-0.3 3.1 0 5.7 0.2 5.7 0.3 0 0.3-2.6 0.3-5.7 0.3z"/>
	</g>
	<g id="Layer">
		<path id="Layer" class="s1" d="m34.1 10.7c-1.2 1.2-2.2 2.1-2.2 2-0.1 0 0.8-1 2-2.2 1.2-1.2 2.2-2.1 2.3-2.1 0.1 0.1-0.9 1.1-2.1 2.3z"/>
		<path id="Layer" class="s1" d="m33.9 10.7c-1.2-1.2-2.1-2.1-2-2.2 0.1-0.1 1.1 0.9 2.3 2 1.2 1.2 2.1 2.2 2 2.3-0.1 0-1.1-0.8-2.3-2.1z"/>
	</g>
	<g id="Layer">
		<path id="Layer" class="s2" d="m41.3 26c0 0-0.1-1-0.1-2.2 0-1.3 0.1-2.3 0.1-2.3 0.1 0 0.1 1 0.1 2.3 0 1.2 0 2.2-0.1 2.2z"/>
		<path id="Layer" class="s2" d="m41.3 23.9c-1.2 0-2.2 0-2.2 0 0-0.1 1-0.1 2.2-0.1 1.3 0 2.3 0 2.3 0.1 0 0-1 0-2.3 0z"/>
	</g>
</svg>